<svg xmlns="http://www.w3.org/2000/svg" xmlns:xlink="http://www.w3.org/1999/xlink" viewBox="0 0 48 48" width="256px" height="256px" fill-rule="evenodd"><defs><linearGradient id="2XdhtM3z15ZvyPAJLBGB3b" x1="21.28" x2="25.65" y1="43.02" y2="43.02" gradientTransform="rotate(45 23.999 24)" gradientUnits="userSpaceOnUse"><stop offset="0" stop-color="#dec187"/><stop offset="1" stop-color="#877145"/></linearGradient><linearGradient id="2XdhtM3z15ZvyPAJLBGB3c" x1="22.14" x2="25.43" y1="34.43" y2="34.43" gradientTransform="rotate(45 23.999 24)" gradientUnits="userSpaceOnUse"><stop offset="0" stop-color="#877145"/><stop offset="1" stop-color="#877145" stop-opacity="0"/></linearGradient><linearGradient id="2XdhtM3z15ZvyPAJLBGB3d" x1="9.76" x2="35.95" y1="10.53" y2="25.63" gradientTransform="rotate(45 23.999 24)" gradientUnits="userSpaceOnUse"><stop offset="0" stop-color="#f7fccc"/><stop offset="1" stop-color="#f2bd0c"/></linearGradient><linearGradient id="2XdhtM3z15ZvyPAJLBGB3e" x1="7.33" x2="30.05" y1="5.08" y2="22.58" gradientTransform="rotate(45 23.999 24)" gradientUnits="userSpaceOnUse"><stop offset="0" stop-color="#e69dcd"/><stop offset=".51" stop-color="#cb7cbb"/><stop offset="1" stop-color="#d8438f"/></linearGradient><linearGradient id="2XdhtM3z15ZvyPAJLBGB3a" x1="11.64" x2="25.02" y1="3.14" y2="19.65" gradientTransform="rotate(45 23.999 24)" gradientUnits="userSpaceOnUse"><stop offset="0" stop-color="#fff" stop-opacity=".6"/><stop offset="1" stop-color="#fff" stop-opacity="0"/></linearGradient><linearGradient id="2XdhtM3z15ZvyPAJLBGB3g" x1="26.43" x2="36.67" y1="30.21" y2="7.02" xlink:href="#2XdhtM3z15ZvyPAJLBGB3a"/><linearGradient id="2XdhtM3z15ZvyPAJLBGB3h" x1="22.55" x2="28.23" y1="14.57" y2="15.58" xlink:href="#2XdhtM3z15ZvyPAJLBGB3a"/><linearGradient id="2XdhtM3z15ZvyPAJLBGB3i" x1="26.94" x2="22.51" y1="19.31" y2="23.18" xlink:href="#2XdhtM3z15ZvyPAJLBGB3a"/><linearGradient id="2XdhtM3z15ZvyPAJLBGB3j" x1="12.43" x2="18.3" y1="5.8" y2="10.09" gradientTransform="rotate(49.23 24.035 22.487)" gradientUnits="userSpaceOnUse"><stop offset="0" stop-color="#fff" stop-opacity=".8"/><stop offset="1" stop-color="#fff" stop-opacity="0"/></linearGradient><radialGradient id="2XdhtM3z15ZvyPAJLBGB3f" cx="24" cy="20.11" r="18.56" gradientTransform="rotate(45 23.999 24)" gradientUnits="userSpaceOnUse"><stop offset="0" stop-color="#cb7cbb" stop-opacity="0"/><stop offset=".36" stop-color="#cb7bbb" stop-opacity=".01"/><stop offset=".51" stop-color="#cc7ab9" stop-opacity=".04"/><stop offset=".61" stop-color="#cc76b7" stop-opacity=".1"/><stop offset=".69" stop-color="#cd72b3" stop-opacity=".18"/><stop offset=".76" stop-color="#cf6caf" stop-opacity=".28"/><stop offset=".83" stop-color="#d065a9" stop-opacity=".41"/><stop offset=".88" stop-color="#d25ca2" stop-opacity=".56"/><stop offset=".94" stop-color="#d5529a" stop-opacity=".74"/><stop offset=".99" stop-color="#d74792" stop-opacity=".93"/><stop offset="1" stop-color="#d8438f"/></radialGradient></defs><path fill="url(#2XdhtM3z15ZvyPAJLBGB3b)" fill-rule="evenodd" d="M19.05,32.19,6.9,44.34A2.24,2.24,0,0,1,5.29,45a2.24,2.24,0,0,1-1.62-.66,2.3,2.3,0,0,1,0-3.24L15.81,28.95Z"/><path fill="url(#2XdhtM3z15ZvyPAJLBGB3c)" fill-rule="evenodd" d="M19.05,32.19l-1.51,1.51a16.44,16.44,0,0,1-3.24-3.24l1.51-1.51Z"/><path fill="url(#2XdhtM3z15ZvyPAJLBGB3d)" fill-rule="evenodd" d="M39.3,31.38a16,16,0,0,1-26-17.95,17,17,0,0,0-.44,8.91,14.5,14.5,0,0,0,8.38,10.09,13.1,13.1,0,0,0,10.37.1,12,12,0,0,0,7.23-8.95,10.78,10.78,0,0,0-3-9.23,9,9,0,0,0-9.52-1.9c-3.71,1.43-5.81,6-3.43,9.52,1.33,1.9,4.28,3,6,1,.57-.76,1-2.28-.1-2.57-.76-.19-1.9,0-2.19-1.24-.29-2.19,2.09-2.86,3.81-2.47A5,5,0,0,1,34.23,22a7.18,7.18,0,0,1-2.76,5.23,8.61,8.61,0,0,1-10.76-.67,10.79,10.79,0,0,1-3.43-6.66A11.8,11.8,0,0,1,27.57,7.11c9.24-1.48,16.77,6.45,16.25,15.36h0A16,16,0,0,1,39.3,31.38Z"/><path fill="url(#2XdhtM3z15ZvyPAJLBGB3d)" fill-rule="evenodd" d="M43.82,22.47h0c.52-8.9-7-16.84-16.25-15.36A11.8,11.8,0,0,0,17.29,19.86a10.79,10.79,0,0,0,3.43,6.66,8.61,8.61,0,0,0,10.76.67A7.18,7.18,0,0,0,34.23,22a5,5,0,0,0-3.71-5.23c-1.71-.38-4.09.29-3.81,2.47.29,1.24,1.43,1,2.19,1.24,1,.29.67,1.81.1,2.57-1.71,1.9-4.66.86-6-1-2.38-3.52-.29-8.09,3.43-9.52a9,9,0,0,1,9.52,1.9,10.78,10.78,0,0,1,3,9.23,12,12,0,0,1-7.23,8.95,13.1,13.1,0,0,1-10.37-.1,14.5,14.5,0,0,1-8.38-10.09,17,17,0,0,1,.44-8.91,16,16,0,1,0,30.47,9Z"/><path fill="url(#2XdhtM3z15ZvyPAJLBGB3e)" fill-rule="evenodd" d="M27.57,7.11A11.8,11.8,0,0,0,17.29,19.86a10.79,10.79,0,0,0,3.43,6.66,8.61,8.61,0,0,0,10.76.67A7.18,7.18,0,0,0,34.23,22a5,5,0,0,0-3.71-5.23c-1.71-.38-4.09.29-3.81,2.47.29,1.24,1.43,1,2.19,1.24,1,.29.67,1.81.1,2.57-1.71,1.9-4.66.86-6-1-2.38-3.52-.29-8.09,3.43-9.52a9,9,0,0,1,9.52,1.9,10.78,10.78,0,0,1,3,9.23,12,12,0,0,1-7.23,8.95,13.1,13.1,0,0,1-10.37-.1,14.5,14.5,0,0,1-8.38-10.09,17,17,0,0,1,.44-8.91,16,16,0,0,1,30.47,9C44.33,13.56,36.8,5.63,27.57,7.11Z"/><path fill="url(#2XdhtM3z15ZvyPAJLBGB3f)" fill-rule="evenodd" d="M43.82,22.47h0a16,16,0,1,0-4.51,8.91A16,16,0,0,0,43.82,22.47Z"/><path fill="url(#2XdhtM3z15ZvyPAJLBGB3a)" fill-rule="evenodd" d="M43.18,22.38h0a15.39,15.39,0,1,0-4.33,8.55A15.37,15.37,0,0,0,43.18,22.37Z"/><path fill="url(#2XdhtM3z15ZvyPAJLBGB3g)" fill-rule="evenodd" d="M43.18,22.38h0a15.43,15.43,0,0,0-1-8.12,15.45,15.45,0,0,1,.41,6.48h0a15.39,15.39,0,0,1-29.45,3.52,15.39,15.39,0,0,0,30-1.88Z"/><path fill="url(#2XdhtM3z15ZvyPAJLBGB3h)" fill-rule="evenodd" d="M33.26,19.63a1.26,1.26,0,0,1,.12.55c0,.43-.32.61-.67.37a1.68,1.68,0,0,1-.38-.48,3.07,3.07,0,0,0-1.61-1.21,3.88,3.88,0,0,1-.76-.26.72.72,0,0,1-.4-.65c.07-.66,1-.56,1.4-.42a3.85,3.85,0,0,1,2.28,2Z"/><path fill="url(#2XdhtM3z15ZvyPAJLBGB3i)" fill-rule="evenodd" d="M26.16,22.22a3.63,3.63,0,0,1-1.66-.53,1,1,0,0,0-.36-.17.3.3,0,0,0-.33.15.4.4,0,0,0,0,.31,2.58,2.58,0,0,0,3.25,1.28,1.15,1.15,0,0,0,.55-.39c.56-.82-.75-.61-1.17-.63Z"/><path fill="url(#2XdhtM3z15ZvyPAJLBGB3j)" fill-rule="evenodd" d="M35.88,7.85a2.91,2.91,0,0,1,.42.45,1.3,1.3,0,0,1,0,1.62c-.48.51-1.31.34-2,.18a20.27,20.27,0,0,0-7.71-.3,8,8,0,0,1-2.18.15c-1.88-.25-2.68-2.31-1-3.36a9.58,9.58,0,0,1,6.5-1.11,13.61,13.61,0,0,1,3.3.93A10.22,10.22,0,0,1,35.88,7.85Z"/></svg>