<?xml version="1.0" encoding="UTF-8" standalone="no"?>
<!-- Created with Inkscape (http://www.inkscape.org/) -->

<svg
   width="222mm"
   height="72mm"
   viewBox="0 0 222 72"
   version="1.1"
   id="svg1"
   sodipodi:docname="hse.svg"
   inkscape:version="1.3.2 (091e20e, 2023-11-25, custom)"
   xmlns:inkscape="http://www.inkscape.org/namespaces/inkscape"
   xmlns:sodipodi="http://sodipodi.sourceforge.net/DTD/sodipodi-0.dtd"
   xmlns="http://www.w3.org/2000/svg"
   xmlns:svg="http://www.w3.org/2000/svg">
  <sodipodi:namedview
     id="namedview1"
     pagecolor="#505050"
     bordercolor="#ffffff"
     borderopacity="1"
     inkscape:showpageshadow="0"
     inkscape:pageopacity="0"
     inkscape:pagecheckerboard="1"
     inkscape:deskcolor="#505050"
     inkscape:document-units="mm"
     inkscape:zoom="0.72426347"
     inkscape:cx="737.30075"
     inkscape:cy="-46.253886"
     inkscape:window-width="2560"
     inkscape:window-height="1009"
     inkscape:window-x="1912"
     inkscape:window-y="-8"
     inkscape:window-maximized="1"
     inkscape:current-layer="text1" />
  <defs
     id="defs1">
    <rect
       x="-7.8104925"
       y="-85.915413"
       width="918.70917"
       height="521.35034"
       id="rect4" />
  </defs>
  <g
     inkscape:label="Слой 1"
     inkscape:groupmode="layer"
     id="layer1">
    <g
       id="text1"
       style="font-size:34.102px;font-family:Tektur;-inkscape-font-specification:Tektur;letter-spacing:0px;word-spacing:0px;fill:#ffffff;stroke-width:0.315759"
       transform="scale(0.83792853,1.1934192)"
       aria-label="HSE ART AND&#10;DESIGN SCHOOL">
      <path
         style="font-weight:800;-inkscape-font-specification:'Tektur Ultra-Bold'"
         d="M 3.2736655,27.015355 V 3.1439542 H 9.8894539 V 11.737659 H 15.95961 V 3.1439542 h 6.615788 V 27.015355 H 15.95961 V 17.739611 H 9.8894539 v 9.275744 z m 22.5072985,0 V 21.286219 H 37.921277 V 17.841917 L 25.439944,16.716551 V 7.5090102 l 4.365057,-4.365056 h 14.391044 v 5.729136 H 32.055733 v 3.1032828 l 12.481332,1.125366 v 9.54856 l -4.365056,4.365056 z m 21.620647,0 V 3.1439542 h 16.914592 v 5.45632 H 54.017399 v 3.6830168 h 8.593704 v 5.183504 h -8.593704 v 4.09224 h 10.639824 v 5.45632 z m 27.418019,0 4.910688,-23.8714008 h 12.072108 l 4.910688,23.8714008 h -7.025012 l -0.818448,-4.77428 H 82.66309 l -0.818448,4.77428 z m 8.593704,-9.412152 H 88.11941 L 86.550718,8.3274582 h -1.568692 z m 21.688896,-2.04612 h 6.47939 V 8.3274582 h -6.47939 z M 118.1974,7.7818262 v 8.1162768 l -2.89867,2.89867 4.09224,8.218582 h -7.43423 l -2.76227,-6.274768 h -4.09224 v 6.274768 H 98.486454 V 3.1439542 h 15.073076 z m 7.74119,19.2335288 V 8.8730902 h -5.83144 v -5.729136 h 18.27867 v 5.729136 h -5.83144 V 27.015355 Z m 22.26863,0 4.91068,-23.8714008 h 12.07211 l 4.91069,23.8714008 h -7.02501 l -0.81845,-4.77428 h -6.20656 l -0.81845,4.77428 z m 8.5937,-9.412152 h 4.70608 l -1.5687,-9.2757448 h -1.56869 z m 15.07312,9.412152 V 3.1439542 h 5.79734 l 8.32088,13.4702908 V 3.1439542 h 6.07016 V 27.015355 h -5.79734 l -8.32089,-13.47029 v 13.47029 z m 29.80514,-5.729136 h 5.55863 V 8.8730902 h -5.55863 z m -6.61578,5.729136 V 3.1439542 h 14.15233 l 4.63787,4.637872 V 22.377483 l -4.63787,4.637872 z"
         id="path4" />
      <path
         style="font-weight:800;-inkscape-font-specification:'Tektur Ultra-Bold'"
         d="M 9.8894537,51.870087 H 15.44808 V 39.456959 H 9.8894537 Z M 3.2736655,57.599224 V 33.727823 H 17.425996 l 4.637872,4.637872 v 14.595656 l -4.637872,4.637873 z m 21.6547795,0 V 33.727823 h 16.914593 v 5.45632 H 31.544233 v 3.683016 h 8.593705 v 5.183504 h -8.593705 v 4.09224 h 10.639825 v 5.456321 z m 19.98377,0 V 51.870087 H 57.052527 V 48.425785 L 44.571195,47.300419 v -9.20754 l 4.365056,-4.365056 h 14.391044 v 5.729136 H 51.186983 v 3.103282 l 12.481332,1.125366 v 9.54856 l -4.365056,4.365057 z m 21.65475,0.136408 v -5.047097 l 2.489446,-0.17051 V 38.809021 l -2.489446,-0.17051 v -5.047096 l 5.79734,0.272816 5.79734,-0.272816 v 5.047096 l -2.489446,0.17051 v 13.709004 l 2.489446,0.17051 v 5.047097 l -5.79734,-0.272816 z M 81.060323,52.961351 V 38.365695 l 4.637872,-4.637872 h 12.958761 v 5.729136 H 87.676111 v 12.413128 h 6.786298 v -3.717118 h -4.194546 v -5.183504 h 9.957787 V 57.599224 H 85.698195 Z m 22.029907,4.637873 V 33.727823 h 5.79734 l 8.32089,13.47029 v -13.47029 h 6.07016 v 23.871401 h -5.79734 l -8.32089,-13.470291 v 13.470291 z m 32.26052,0 v -5.729137 h 12.14031 v -3.444302 l -12.48133,-1.125366 v -9.20754 l 4.36506,-4.365056 h 14.39104 v 5.729136 h -12.14031 v 3.103282 l 12.48133,1.125366 v 9.54856 l -4.36505,4.365057 z m 21.48424,-4.637873 V 38.365695 l 4.63787,-4.637872 h 11.79929 v 6.001952 h -9.54856 v 11.867496 h 9.88958 v 6.001953 h -12.14031 z m 19.16534,4.637873 V 33.727823 h 6.61579 v 8.593704 h 6.07015 v -8.593704 h 6.61579 v 23.871401 h -6.61579 v -9.275745 h -6.07015 v 9.275745 z m 22.16628,-4.637873 V 38.365695 l 4.63787,-4.637872 h 11.18546 l 4.63787,4.637872 v 14.595656 l -4.63787,4.637873 h -11.18546 z m 6.8886,-13.504392 v 12.413128 h 6.68399 V 39.456959 Z m 16.30077,13.504392 V 38.365695 l 4.63788,-4.637872 h 11.18545 l 4.63787,4.637872 v 14.595656 l -4.63787,4.637873 h -11.18545 z m 6.88861,-13.504392 v 12.413128 h 6.68399 V 39.456959 Z m 16.43716,18.142265 V 33.727823 h 6.61579 v 18.41508 h 4.74018 v -4.09224 h 5.76324 v 9.548561 z"
         id="path5" />
    </g>
    <text
       xml:space="preserve"
       transform="scale(0.26458333)"
       id="text4"
       style="font-style:normal;font-variant:normal;font-weight:800;font-stretch:normal;font-size:108px;font-family:Tektur;-inkscape-font-specification:'Tektur Ultra-Bold';letter-spacing:0px;word-spacing:0px;direction:ltr;white-space:pre;shape-inside:url(#rect4);fill:#ffffff" />
  </g>
</svg>
